<svg width="1299" height="699" viewBox="0 0 1299 699" fill="none" xmlns="http://www.w3.org/2000/svg">
<mask id="path-1-outside-1_79_1138" maskUnits="userSpaceOnUse" x="5" y="71" width="1148" height="224" fill="black">
<rect fill="white" x="5" y="71" width="1148" height="224"/>
<path d="M6.07266 290V244.08H20.0727V118.08H6.07266V72.16H173.513V144.68H123.953V118.08H98.4727V164.56H140.753V196.48H98.4727V244.08H135.153V290H6.07266ZM276.507 293.92C247.2 293.92 224.52 287.48 208.467 274.6C192.6 261.72 184.667 240.813 184.667 211.88V118.08H170.667V72.16H274.267V118.08H263.067V226.16C263.067 232.32 264.373 236.893 266.987 239.88C269.787 242.68 273.893 244.08 279.307 244.08C284.72 244.08 288.733 242.68 291.347 239.88C294.147 236.893 295.547 232.32 295.547 226.16V118.08H284.347V72.16H380.387V118.08H366.387V211.88C366.387 240.813 358.64 261.72 343.147 274.6C327.653 287.48 305.44 293.92 276.507 293.92ZM379.337 244.08H393.337V118.08H379.337V72.16H507.857C531.937 72.16 550.323 77.1067 563.017 87C575.71 96.8933 582.057 112.947 582.057 135.16C582.057 147.667 579.537 158.493 574.497 167.64C569.457 176.787 562.27 183.133 552.937 186.68L553.217 189.48C571.137 192.28 580.097 203.293 580.097 222.52V244.08H593.257V290H504.497V224.2C504.497 216.92 503.377 211.413 501.137 207.68C499.083 203.947 495.723 201.427 491.057 200.12C486.577 198.813 480.137 198.16 471.737 198.16V244.08H490.217V290H379.337V244.08ZM486.857 164C492.27 164 496.283 162.6 498.897 159.8C501.697 156.813 503.097 152.24 503.097 146.08V136C503.097 129.84 501.697 125.36 498.897 122.56C496.283 119.573 492.27 118.08 486.857 118.08H471.737V164H486.857ZM797.602 244.08H808.802V290H699.042V244.08H715.842L711.362 221.68H673.282L668.802 244.08H685.602V290H589.842V244.08H601.042L648.362 72.16H750.282L797.602 244.08ZM679.442 192H705.202L693.722 136.28H690.922L679.442 192ZM806.468 290V244.08H820.468V118.08H806.468V72.16H924.628V118.08H898.868V244.08H924.068V218.32H979.788V290H806.468ZM978.198 290V244.08H992.198V118.08H978.198V72.16H1096.36V118.08H1070.6V244.08H1095.8V218.32H1151.52V290H978.198Z"/>
</mask>
<path d="M6.07266 290H5.07266V291H6.07266V290ZM6.07266 244.08V243.08H5.07266V244.08H6.07266ZM20.0727 244.08V245.08H21.0727V244.08H20.0727ZM20.0727 118.08H21.0727V117.08H20.0727V118.08ZM6.07266 118.08H5.07266V119.08H6.07266V118.08ZM6.07266 72.16V71.16H5.07266V72.16H6.07266ZM173.513 72.16H174.513V71.16H173.513V72.16ZM173.513 144.68V145.68H174.513V144.68H173.513ZM123.953 144.68H122.953V145.68H123.953V144.68ZM123.953 118.08H124.953V117.08H123.953V118.08ZM98.4727 118.08V117.08H97.4727V118.08H98.4727ZM98.4727 164.56H97.4727V165.56H98.4727V164.56ZM140.753 164.56H141.753V163.56H140.753V164.56ZM140.753 196.48V197.48H141.753V196.48H140.753ZM98.4727 196.48V195.48H97.4727V196.48H98.4727ZM98.4727 244.08H97.4727V245.08H98.4727V244.08ZM135.153 244.08H136.153V243.08H135.153V244.08ZM135.153 290V291H136.153V290H135.153ZM7.07266 290V244.08H5.07266V290H7.07266ZM6.07266 245.08H20.0727V243.08H6.07266V245.08ZM21.0727 244.08V118.08H19.0727V244.08H21.0727ZM20.0727 117.08H6.07266V119.08H20.0727V117.08ZM7.07266 118.08V72.16H5.07266V118.08H7.07266ZM6.07266 73.16H173.513V71.16H6.07266V73.16ZM172.513 72.16V144.68H174.513V72.16H172.513ZM173.513 143.68H123.953V145.68H173.513V143.68ZM124.953 144.68V118.08H122.953V144.68H124.953ZM123.953 117.08H98.4727V119.08H123.953V117.08ZM97.4727 118.08V164.56H99.4727V118.08H97.4727ZM98.4727 165.56H140.753V163.56H98.4727V165.56ZM139.753 164.56V196.48H141.753V164.56H139.753ZM140.753 195.48H98.4727V197.48H140.753V195.48ZM97.4727 196.48V244.08H99.4727V196.48H97.4727ZM98.4727 245.08H135.153V243.08H98.4727V245.08ZM134.153 244.08V290H136.153V244.08H134.153ZM135.153 289H6.07266V291H135.153V289ZM208.467 274.6L207.836 275.376L207.841 275.38L208.467 274.6ZM184.667 118.08H185.667V117.08H184.667V118.08ZM170.667 118.08H169.667V119.08H170.667V118.08ZM170.667 72.16V71.16H169.667V72.16H170.667ZM274.267 72.16H275.267V71.16H274.267V72.16ZM274.267 118.08V119.08H275.267V118.08H274.267ZM263.067 118.08V117.08H262.067V118.08H263.067ZM266.987 239.88L266.234 240.539L266.256 240.564L266.28 240.587L266.987 239.88ZM291.347 239.88L290.617 239.196L290.616 239.198L291.347 239.88ZM295.547 118.08H296.547V117.08H295.547V118.08ZM284.347 118.08H283.347V119.08H284.347V118.08ZM284.347 72.16V71.16H283.347V72.16H284.347ZM380.387 72.16H381.387V71.16H380.387V72.16ZM380.387 118.08V119.08H381.387V118.08H380.387ZM366.387 118.08V117.08H365.387V118.08H366.387ZM343.147 274.6L342.507 273.831L343.147 274.6ZM276.507 292.92C247.333 292.92 224.907 286.508 209.093 273.82L207.841 275.38C224.133 288.452 247.067 294.92 276.507 294.92V292.92ZM209.097 273.824C193.55 261.203 185.667 240.643 185.667 211.88H183.667C183.667 240.984 191.65 262.237 207.836 275.376L209.097 273.824ZM185.667 211.88V118.08H183.667V211.88H185.667ZM184.667 117.08H170.667V119.08H184.667V117.08ZM171.667 118.08V72.16H169.667V118.08H171.667ZM170.667 73.16H274.267V71.16H170.667V73.16ZM273.267 72.16V118.08H275.267V72.16H273.267ZM274.267 117.08H263.067V119.08H274.267V117.08ZM262.067 118.08V226.16H264.067V118.08H262.067ZM262.067 226.16C262.067 232.434 263.394 237.292 266.234 240.539L267.739 239.221C265.353 236.495 264.067 232.206 264.067 226.16H262.067ZM266.28 240.587C269.328 243.635 273.728 245.08 279.307 245.08V243.08C274.059 243.08 270.246 241.725 267.694 239.173L266.28 240.587ZM279.307 245.08C284.88 245.08 289.208 243.637 292.078 240.562L290.616 239.198C288.259 241.723 284.56 243.08 279.307 243.08V245.08ZM292.076 240.564C295.12 237.317 296.547 232.449 296.547 226.16H294.547C294.547 232.191 293.173 236.469 290.617 239.196L292.076 240.564ZM296.547 226.16V118.08H294.547V226.16H296.547ZM295.547 117.08H284.347V119.08H295.547V117.08ZM285.347 118.08V72.16H283.347V118.08H285.347ZM284.347 73.16H380.387V71.16H284.347V73.16ZM379.387 72.16V118.08H381.387V72.16H379.387ZM380.387 117.08H366.387V119.08H380.387V117.08ZM365.387 118.08V211.88H367.387V118.08H365.387ZM365.387 211.88C365.387 240.65 357.686 261.213 342.507 273.831L343.786 275.369C359.594 262.227 367.387 240.976 367.387 211.88H365.387ZM342.507 273.831C327.258 286.508 305.306 292.92 276.507 292.92V294.92C305.574 294.92 328.049 288.452 343.786 275.369L342.507 273.831ZM379.337 244.08V243.08H378.337V244.08H379.337ZM393.337 244.08V245.08H394.337V244.08H393.337ZM393.337 118.08H394.337V117.08H393.337V118.08ZM379.337 118.08H378.337V119.08H379.337V118.08ZM379.337 72.16V71.16H378.337V72.16H379.337ZM563.017 87L562.402 87.7887L562.402 87.7887L563.017 87ZM574.497 167.64L573.621 167.157L573.621 167.157L574.497 167.64ZM552.937 186.68L552.582 185.745L551.865 186.017L551.942 186.779L552.937 186.68ZM553.217 189.48L552.222 189.579L552.299 190.349L553.062 190.468L553.217 189.48ZM580.097 244.08H579.097V245.08H580.097V244.08ZM593.257 244.08H594.257V243.08H593.257V244.08ZM593.257 290V291H594.257V290H593.257ZM504.497 290H503.497V291H504.497V290ZM501.137 207.68L500.261 208.162L500.27 208.178L500.279 208.194L501.137 207.68ZM491.057 200.12L490.777 201.08L490.787 201.083L491.057 200.12ZM471.737 198.16V197.16H470.737V198.16H471.737ZM471.737 244.08H470.737V245.08H471.737V244.08ZM490.217 244.08H491.217V243.08H490.217V244.08ZM490.217 290V291H491.217V290H490.217ZM379.337 290H378.337V291H379.337V290ZM498.897 159.8L498.167 159.116L498.166 159.118L498.897 159.8ZM498.897 122.56L498.144 123.218L498.166 123.244L498.19 123.267L498.897 122.56ZM471.737 118.08V117.08H470.737V118.08H471.737ZM471.737 164H470.737V165H471.737V164ZM379.337 245.08H393.337V243.08H379.337V245.08ZM394.337 244.08V118.08H392.337V244.08H394.337ZM393.337 117.08H379.337V119.08H393.337V117.08ZM380.337 118.08V72.16H378.337V118.08H380.337ZM379.337 73.16H507.857V71.16H379.337V73.16ZM507.857 73.16C531.82 73.16 549.953 78.0855 562.402 87.7887L563.631 86.2113C550.694 76.1278 532.054 71.16 507.857 71.16V73.16ZM562.402 87.7887C574.768 97.4273 581.057 113.13 581.057 135.16H583.057C583.057 112.763 576.652 96.3594 563.631 86.2113L562.402 87.7887ZM581.057 135.16C581.057 147.531 578.565 158.185 573.621 167.157L575.373 168.123C580.509 158.801 583.057 147.802 583.057 135.16H581.057ZM573.621 167.157C568.69 176.107 561.682 182.287 552.582 185.745L553.292 187.615C562.858 183.98 570.224 177.467 575.373 168.123L573.621 167.157ZM551.942 186.779L552.222 189.579L554.212 189.38L553.932 186.58L551.942 186.779ZM553.062 190.468C561.848 191.841 568.316 195.205 572.601 200.471C576.892 205.745 579.097 213.055 579.097 222.52H581.097C581.097 212.758 578.822 204.948 574.152 199.209C569.477 193.462 562.505 189.919 553.371 188.492L553.062 190.468ZM579.097 222.52V244.08H581.097V222.52H579.097ZM580.097 245.08H593.257V243.08H580.097V245.08ZM592.257 244.08V290H594.257V244.08H592.257ZM593.257 289H504.497V291H593.257V289ZM505.497 290V224.2H503.497V290H505.497ZM505.497 224.2C505.497 216.847 504.371 211.126 501.994 207.166L500.279 208.194C502.383 211.7 503.497 216.993 503.497 224.2H505.497ZM502.013 207.198C499.812 203.196 496.213 200.525 491.326 199.157L490.787 201.083C495.234 202.328 498.355 204.697 500.261 208.162L502.013 207.198ZM491.337 199.16C486.721 197.814 480.169 197.16 471.737 197.16V199.16C480.105 199.16 486.433 199.813 490.777 201.08L491.337 199.16ZM470.737 198.16V244.08H472.737V198.16H470.737ZM471.737 245.08H490.217V243.08H471.737V245.08ZM489.217 244.08V290H491.217V244.08H489.217ZM490.217 289H379.337V291H490.217V289ZM380.337 290V244.08H378.337V290H380.337ZM486.857 165C492.43 165 496.758 163.557 499.628 160.482L498.166 159.118C495.809 161.643 492.11 163 486.857 163V165ZM499.626 160.484C502.67 157.237 504.097 152.369 504.097 146.08H502.097C502.097 152.111 500.723 156.389 498.167 159.116L499.626 160.484ZM504.097 146.08V136H502.097V146.08H504.097ZM504.097 136C504.097 129.718 502.673 124.922 499.604 121.853L498.19 123.267C500.72 125.798 502.097 129.962 502.097 136H504.097ZM499.649 121.901C496.784 118.627 492.449 117.08 486.857 117.08V119.08C492.092 119.08 495.783 120.52 498.144 123.218L499.649 121.901ZM486.857 117.08H471.737V119.08H486.857V117.08ZM470.737 118.08V164H472.737V118.08H470.737ZM471.737 165H486.857V163H471.737V165ZM797.602 244.08L796.638 244.345L796.84 245.08H797.602V244.08ZM808.802 244.08H809.802V243.08H808.802V244.08ZM808.802 290V291H809.802V290H808.802ZM699.042 290H698.042V291H699.042V290ZM699.042 244.08V243.08H698.042V244.08H699.042ZM715.842 244.08V245.08H717.062L716.823 243.884L715.842 244.08ZM711.362 221.68L712.343 221.484L712.182 220.68H711.362V221.68ZM673.282 221.68V220.68H672.462L672.301 221.484L673.282 221.68ZM668.802 244.08L667.821 243.884L667.582 245.08H668.802V244.08ZM685.602 244.08H686.602V243.08H685.602V244.08ZM685.602 290V291H686.602V290H685.602ZM589.842 290H588.842V291H589.842V290ZM589.842 244.08V243.08H588.842V244.08H589.842ZM601.042 244.08V245.08H601.804L602.006 244.345L601.042 244.08ZM648.362 72.16V71.16H647.6L647.398 71.8946L648.362 72.16ZM750.282 72.16L751.246 71.8946L751.044 71.16H750.282V72.16ZM679.442 192L678.463 191.798L678.215 193H679.442V192ZM705.202 192V193H706.429L706.181 191.798L705.202 192ZM693.722 136.28L694.701 136.078L694.537 135.28H693.722V136.28ZM690.922 136.28V135.28H690.107L689.943 136.078L690.922 136.28ZM797.602 245.08H808.802V243.08H797.602V245.08ZM807.802 244.08V290H809.802V244.08H807.802ZM808.802 289H699.042V291H808.802V289ZM700.042 290V244.08H698.042V290H700.042ZM699.042 245.08H715.842V243.08H699.042V245.08ZM716.823 243.884L712.343 221.484L710.381 221.876L714.861 244.276L716.823 243.884ZM711.362 220.68H673.282V222.68H711.362V220.68ZM672.301 221.484L667.821 243.884L669.783 244.276L674.263 221.876L672.301 221.484ZM668.802 245.08H685.602V243.08H668.802V245.08ZM684.602 244.08V290H686.602V244.08H684.602ZM685.602 289H589.842V291H685.602V289ZM590.842 290V244.08H588.842V290H590.842ZM589.842 245.08H601.042V243.08H589.842V245.08ZM602.006 244.345L649.326 72.4254L647.398 71.8946L600.078 243.815L602.006 244.345ZM648.362 73.16H750.282V71.16H648.362V73.16ZM749.318 72.4254L796.638 244.345L798.566 243.815L751.246 71.8946L749.318 72.4254ZM679.442 193H705.202V191H679.442V193ZM706.181 191.798L694.701 136.078L692.743 136.482L704.223 192.202L706.181 191.798ZM693.722 135.28H690.922V137.28H693.722V135.28ZM689.943 136.078L678.463 191.798L680.421 192.202L691.901 136.482L689.943 136.078ZM806.468 290H805.468V291H806.468V290ZM806.468 244.08V243.08H805.468V244.08H806.468ZM820.468 244.08V245.08H821.468V244.08H820.468ZM820.468 118.08H821.468V117.08H820.468V118.08ZM806.468 118.08H805.468V119.08H806.468V118.08ZM806.468 72.16V71.16H805.468V72.16H806.468ZM924.628 72.16H925.628V71.16H924.628V72.16ZM924.628 118.08V119.08H925.628V118.08H924.628ZM898.868 118.08V117.08H897.868V118.08H898.868ZM898.868 244.08H897.868V245.08H898.868V244.08ZM924.068 244.08V245.08H925.068V244.08H924.068ZM924.068 218.32V217.32H923.068V218.32H924.068ZM979.788 218.32H980.788V217.32H979.788V218.32ZM979.788 290V291H980.788V290H979.788ZM807.468 290V244.08H805.468V290H807.468ZM806.468 245.08H820.468V243.08H806.468V245.08ZM821.468 244.08V118.08H819.468V244.08H821.468ZM820.468 117.08H806.468V119.08H820.468V117.08ZM807.468 118.08V72.16H805.468V118.08H807.468ZM806.468 73.16H924.628V71.16H806.468V73.16ZM923.628 72.16V118.08H925.628V72.16H923.628ZM924.628 117.08H898.868V119.08H924.628V117.08ZM897.868 118.08V244.08H899.868V118.08H897.868ZM898.868 245.08H924.068V243.08H898.868V245.08ZM925.068 244.08V218.32H923.068V244.08H925.068ZM924.068 219.32H979.788V217.32H924.068V219.32ZM978.788 218.32V290H980.788V218.32H978.788ZM979.788 289H806.468V291H979.788V289ZM978.198 290H977.198V291H978.198V290ZM978.198 244.08V243.08H977.198V244.08H978.198ZM992.198 244.08V245.08H993.198V244.08H992.198ZM992.198 118.08H993.198V117.08H992.198V118.08ZM978.198 118.08H977.198V119.08H978.198V118.08ZM978.198 72.16V71.16H977.198V72.16H978.198ZM1096.36 72.16H1097.36V71.16H1096.36V72.16ZM1096.36 118.08V119.08H1097.36V118.08H1096.36ZM1070.6 118.08V117.08H1069.6V118.08H1070.6ZM1070.6 244.08H1069.6V245.08H1070.6V244.08ZM1095.8 244.08V245.08H1096.8V244.08H1095.8ZM1095.8 218.32V217.32H1094.8V218.32H1095.8ZM1151.52 218.32H1152.52V217.32H1151.52V218.32ZM1151.52 290V291H1152.52V290H1151.52ZM979.198 290V244.08H977.198V290H979.198ZM978.198 245.08H992.198V243.08H978.198V245.08ZM993.198 244.08V118.08H991.198V244.08H993.198ZM992.198 117.08H978.198V119.08H992.198V117.08ZM979.198 118.08V72.16H977.198V118.08H979.198ZM978.198 73.16H1096.36V71.16H978.198V73.16ZM1095.36 72.16V118.08H1097.36V72.16H1095.36ZM1096.36 117.08H1070.6V119.08H1096.36V117.08ZM1069.6 118.08V244.08H1071.6V118.08H1069.6ZM1070.6 245.08H1095.8V243.08H1070.6V245.08ZM1096.8 244.08V218.32H1094.8V244.08H1096.8ZM1095.8 219.32H1151.52V217.32H1095.8V219.32ZM1150.52 218.32V290H1152.52V218.32H1150.52ZM1151.52 289H978.198V291H1151.52V289Z" fill="url(#paint0_linear_79_1138)" mask="url(#path-1-outside-1_79_1138)"/>
<mask id="path-3-outside-2_79_1138" maskUnits="userSpaceOnUse" x="148" y="387" width="1148" height="224" fill="black">
<rect fill="white" x="148" y="387" width="1148" height="224"/>
<path d="M149.073 606V560.08H163.073V434.08H149.073V388.16H316.513V460.68H266.953V434.08H241.473V480.56H283.753V512.48H241.473V560.08H278.153V606H149.073ZM419.507 609.92C390.2 609.92 367.52 603.48 351.467 590.6C335.6 577.72 327.667 556.813 327.667 527.88V434.08H313.667V388.16H417.267V434.08H406.067V542.16C406.067 548.32 407.373 552.893 409.987 555.88C412.787 558.68 416.893 560.08 422.307 560.08C427.72 560.08 431.733 558.68 434.347 555.88C437.147 552.893 438.547 548.32 438.547 542.16V434.08H427.347V388.16H523.387V434.08H509.387V527.88C509.387 556.813 501.64 577.72 486.147 590.6C470.653 603.48 448.44 609.92 419.507 609.92ZM522.337 560.08H536.337V434.08H522.337V388.16H650.857C674.937 388.16 693.323 393.107 706.017 403C718.71 412.893 725.057 428.947 725.057 451.16C725.057 463.667 722.537 474.493 717.497 483.64C712.457 492.787 705.27 499.133 695.937 502.68L696.217 505.48C714.137 508.28 723.097 519.293 723.097 538.52V560.08H736.257V606H647.497V540.2C647.497 532.92 646.377 527.413 644.137 523.68C642.083 519.947 638.723 517.427 634.057 516.12C629.577 514.813 623.137 514.16 614.737 514.16V560.08H633.217V606H522.337V560.08ZM629.857 480C635.27 480 639.283 478.6 641.897 475.8C644.697 472.813 646.097 468.24 646.097 462.08V452C646.097 445.84 644.697 441.36 641.897 438.56C639.283 435.573 635.27 434.08 629.857 434.08H614.737V480H629.857ZM940.602 560.08H951.802V606H842.042V560.08H858.842L854.362 537.68H816.282L811.802 560.08H828.602V606H732.842V560.08H744.042L791.362 388.16H893.282L940.602 560.08ZM822.442 508H848.202L836.722 452.28H833.922L822.442 508ZM949.468 606V560.08H963.468V434.08H949.468V388.16H1067.63V434.08H1041.87V560.08H1067.07V534.32H1122.79V606H949.468ZM1121.2 606V560.08H1135.2V434.08H1121.2V388.16H1239.36V434.08H1213.6V560.08H1238.8V534.32H1294.52V606H1121.2Z"/>
</mask>
<path d="M149.073 606H148.073V607H149.073V606ZM149.073 560.08V559.08H148.073V560.08H149.073ZM163.073 560.08V561.08H164.073V560.08H163.073ZM163.073 434.08H164.073V433.08H163.073V434.08ZM149.073 434.08H148.073V435.08H149.073V434.08ZM149.073 388.16V387.16H148.073V388.16H149.073ZM316.513 388.16H317.513V387.16H316.513V388.16ZM316.513 460.68V461.68H317.513V460.68H316.513ZM266.953 460.68H265.953V461.68H266.953V460.68ZM266.953 434.08H267.953V433.08H266.953V434.08ZM241.473 434.08V433.08H240.473V434.08H241.473ZM241.473 480.56H240.473V481.56H241.473V480.56ZM283.753 480.56H284.753V479.56H283.753V480.56ZM283.753 512.48V513.48H284.753V512.48H283.753ZM241.473 512.48V511.48H240.473V512.48H241.473ZM241.473 560.08H240.473V561.08H241.473V560.08ZM278.153 560.08H279.153V559.08H278.153V560.08ZM278.153 606V607H279.153V606H278.153ZM150.073 606V560.08H148.073V606H150.073ZM149.073 561.08H163.073V559.08H149.073V561.08ZM164.073 560.08V434.08H162.073V560.08H164.073ZM163.073 433.08H149.073V435.08H163.073V433.08ZM150.073 434.08V388.16H148.073V434.08H150.073ZM149.073 389.16H316.513V387.16H149.073V389.16ZM315.513 388.16V460.68H317.513V388.16H315.513ZM316.513 459.68H266.953V461.68H316.513V459.68ZM267.953 460.68V434.08H265.953V460.68H267.953ZM266.953 433.08H241.473V435.08H266.953V433.08ZM240.473 434.08V480.56H242.473V434.08H240.473ZM241.473 481.56H283.753V479.56H241.473V481.56ZM282.753 480.56V512.48H284.753V480.56H282.753ZM283.753 511.48H241.473V513.48H283.753V511.48ZM240.473 512.48V560.08H242.473V512.48H240.473ZM241.473 561.08H278.153V559.08H241.473V561.08ZM277.153 560.08V606H279.153V560.08H277.153ZM278.153 605H149.073V607H278.153V605ZM351.467 590.6L350.836 591.376L350.841 591.38L351.467 590.6ZM327.667 434.08H328.667V433.08H327.667V434.08ZM313.667 434.08H312.667V435.08H313.667V434.08ZM313.667 388.16V387.16H312.667V388.16H313.667ZM417.267 388.16H418.267V387.16H417.267V388.16ZM417.267 434.08V435.08H418.267V434.08H417.267ZM406.067 434.08V433.08H405.067V434.08H406.067ZM409.987 555.88L409.234 556.539L409.256 556.564L409.28 556.587L409.987 555.88ZM434.347 555.88L433.617 555.196L433.616 555.198L434.347 555.88ZM438.547 434.08H439.547V433.08H438.547V434.08ZM427.347 434.08H426.347V435.08H427.347V434.08ZM427.347 388.16V387.16H426.347V388.16H427.347ZM523.387 388.16H524.387V387.16H523.387V388.16ZM523.387 434.08V435.08H524.387V434.08H523.387ZM509.387 434.08V433.08H508.387V434.08H509.387ZM486.147 590.6L485.507 589.831L486.147 590.6ZM419.507 608.92C390.333 608.92 367.907 602.508 352.093 589.82L350.841 591.38C367.133 604.452 390.067 610.92 419.507 610.92V608.92ZM352.097 589.824C336.55 577.203 328.667 556.643 328.667 527.88H326.667C326.667 556.984 334.65 578.237 350.836 591.376L352.097 589.824ZM328.667 527.88V434.08H326.667V527.88H328.667ZM327.667 433.08H313.667V435.08H327.667V433.08ZM314.667 434.08V388.16H312.667V434.08H314.667ZM313.667 389.16H417.267V387.16H313.667V389.16ZM416.267 388.16V434.08H418.267V388.16H416.267ZM417.267 433.08H406.067V435.08H417.267V433.08ZM405.067 434.08V542.16H407.067V434.08H405.067ZM405.067 542.16C405.067 548.434 406.394 553.292 409.234 556.539L410.739 555.221C408.353 552.495 407.067 548.206 407.067 542.16H405.067ZM409.28 556.587C412.328 559.635 416.728 561.08 422.307 561.08V559.08C417.059 559.08 413.246 557.725 410.694 555.173L409.28 556.587ZM422.307 561.08C427.88 561.08 432.208 559.637 435.078 556.562L433.616 555.198C431.259 557.723 427.56 559.08 422.307 559.08V561.08ZM435.076 556.564C438.12 553.317 439.547 548.449 439.547 542.16H437.547C437.547 548.191 436.173 552.469 433.617 555.196L435.076 556.564ZM439.547 542.16V434.08H437.547V542.16H439.547ZM438.547 433.08H427.347V435.08H438.547V433.08ZM428.347 434.08V388.16H426.347V434.08H428.347ZM427.347 389.16H523.387V387.16H427.347V389.16ZM522.387 388.16V434.08H524.387V388.16H522.387ZM523.387 433.08H509.387V435.08H523.387V433.08ZM508.387 434.08V527.88H510.387V434.08H508.387ZM508.387 527.88C508.387 556.65 500.686 577.213 485.507 589.831L486.786 591.369C502.594 578.227 510.387 556.976 510.387 527.88H508.387ZM485.507 589.831C470.258 602.508 448.306 608.92 419.507 608.92V610.92C448.574 610.92 471.049 604.452 486.786 591.369L485.507 589.831ZM522.337 560.08V559.08H521.337V560.08H522.337ZM536.337 560.08V561.08H537.337V560.08H536.337ZM536.337 434.08H537.337V433.08H536.337V434.08ZM522.337 434.08H521.337V435.08H522.337V434.08ZM522.337 388.16V387.16H521.337V388.16H522.337ZM706.017 403L705.402 403.789L705.402 403.789L706.017 403ZM717.497 483.64L716.621 483.157L716.621 483.157L717.497 483.64ZM695.937 502.68L695.582 501.745L694.865 502.017L694.942 502.779L695.937 502.68ZM696.217 505.48L695.222 505.579L695.299 506.349L696.062 506.468L696.217 505.48ZM723.097 560.08H722.097V561.08H723.097V560.08ZM736.257 560.08H737.257V559.08H736.257V560.08ZM736.257 606V607H737.257V606H736.257ZM647.497 606H646.497V607H647.497V606ZM644.137 523.68L643.261 524.162L643.27 524.178L643.279 524.194L644.137 523.68ZM634.057 516.12L633.777 517.08L633.787 517.083L634.057 516.12ZM614.737 514.16V513.16H613.737V514.16H614.737ZM614.737 560.08H613.737V561.08H614.737V560.08ZM633.217 560.08H634.217V559.08H633.217V560.08ZM633.217 606V607H634.217V606H633.217ZM522.337 606H521.337V607H522.337V606ZM641.897 475.8L641.167 475.116L641.166 475.118L641.897 475.8ZM641.897 438.56L641.144 439.218L641.166 439.244L641.19 439.267L641.897 438.56ZM614.737 434.08V433.08H613.737V434.08H614.737ZM614.737 480H613.737V481H614.737V480ZM522.337 561.08H536.337V559.08H522.337V561.08ZM537.337 560.08V434.08H535.337V560.08H537.337ZM536.337 433.08H522.337V435.08H536.337V433.08ZM523.337 434.08V388.16H521.337V434.08H523.337ZM522.337 389.16H650.857V387.16H522.337V389.16ZM650.857 389.16C674.82 389.16 692.953 394.086 705.402 403.789L706.631 402.211C693.694 392.128 675.054 387.16 650.857 387.16V389.16ZM705.402 403.789C717.768 413.427 724.057 429.13 724.057 451.16H726.057C726.057 428.763 719.652 412.359 706.631 402.211L705.402 403.789ZM724.057 451.16C724.057 463.531 721.565 474.185 716.621 483.157L718.373 484.123C723.509 474.801 726.057 463.802 726.057 451.16H724.057ZM716.621 483.157C711.69 492.107 704.682 498.287 695.582 501.745L696.292 503.615C705.858 499.98 713.224 493.467 718.373 484.123L716.621 483.157ZM694.942 502.779L695.222 505.579L697.212 505.38L696.932 502.58L694.942 502.779ZM696.062 506.468C704.848 507.841 711.316 511.205 715.601 516.471C719.892 521.745 722.097 529.055 722.097 538.52H724.097C724.097 528.758 721.822 520.948 717.152 515.209C712.477 509.462 705.505 505.919 696.371 504.492L696.062 506.468ZM722.097 538.52V560.08H724.097V538.52H722.097ZM723.097 561.08H736.257V559.08H723.097V561.08ZM735.257 560.08V606H737.257V560.08H735.257ZM736.257 605H647.497V607H736.257V605ZM648.497 606V540.2H646.497V606H648.497ZM648.497 540.2C648.497 532.847 647.371 527.126 644.994 523.166L643.279 524.194C645.383 527.7 646.497 532.993 646.497 540.2H648.497ZM645.013 523.198C642.812 519.196 639.213 516.525 634.326 515.157L633.787 517.083C638.234 518.328 641.355 520.697 643.261 524.162L645.013 523.198ZM634.337 515.16C629.721 513.814 623.169 513.16 614.737 513.16V515.16C623.105 515.16 629.433 515.813 633.777 517.08L634.337 515.16ZM613.737 514.16V560.08H615.737V514.16H613.737ZM614.737 561.08H633.217V559.08H614.737V561.08ZM632.217 560.08V606H634.217V560.08H632.217ZM633.217 605H522.337V607H633.217V605ZM523.337 606V560.08H521.337V606H523.337ZM629.857 481C635.43 481 639.758 479.557 642.628 476.482L641.166 475.118C638.809 477.643 635.11 479 629.857 479V481ZM642.626 476.484C645.67 473.237 647.097 468.369 647.097 462.08H645.097C645.097 468.111 643.723 472.389 641.167 475.116L642.626 476.484ZM647.097 462.08V452H645.097V462.08H647.097ZM647.097 452C647.097 445.718 645.673 440.922 642.604 437.853L641.19 439.267C643.72 441.798 645.097 445.962 645.097 452H647.097ZM642.649 437.901C639.784 434.627 635.449 433.08 629.857 433.08V435.08C635.092 435.08 638.783 436.52 641.144 439.218L642.649 437.901ZM629.857 433.08H614.737V435.08H629.857V433.08ZM613.737 434.08V480H615.737V434.08H613.737ZM614.737 481H629.857V479H614.737V481ZM940.602 560.08L939.638 560.345L939.84 561.08H940.602V560.08ZM951.802 560.08H952.802V559.08H951.802V560.08ZM951.802 606V607H952.802V606H951.802ZM842.042 606H841.042V607H842.042V606ZM842.042 560.08V559.08H841.042V560.08H842.042ZM858.842 560.08V561.08H860.062L859.823 559.884L858.842 560.08ZM854.362 537.68L855.343 537.484L855.182 536.68H854.362V537.68ZM816.282 537.68V536.68H815.462L815.301 537.484L816.282 537.68ZM811.802 560.08L810.821 559.884L810.582 561.08H811.802V560.08ZM828.602 560.08H829.602V559.08H828.602V560.08ZM828.602 606V607H829.602V606H828.602ZM732.842 606H731.842V607H732.842V606ZM732.842 560.08V559.08H731.842V560.08H732.842ZM744.042 560.08V561.08H744.804L745.006 560.345L744.042 560.08ZM791.362 388.16V387.16H790.6L790.398 387.895L791.362 388.16ZM893.282 388.16L894.246 387.895L894.044 387.16H893.282V388.16ZM822.442 508L821.463 507.798L821.215 509H822.442V508ZM848.202 508V509H849.429L849.181 507.798L848.202 508ZM836.722 452.28L837.701 452.078L837.537 451.28H836.722V452.28ZM833.922 452.28V451.28H833.107L832.943 452.078L833.922 452.28ZM940.602 561.08H951.802V559.08H940.602V561.08ZM950.802 560.08V606H952.802V560.08H950.802ZM951.802 605H842.042V607H951.802V605ZM843.042 606V560.08H841.042V606H843.042ZM842.042 561.08H858.842V559.08H842.042V561.08ZM859.823 559.884L855.343 537.484L853.381 537.876L857.861 560.276L859.823 559.884ZM854.362 536.68H816.282V538.68H854.362V536.68ZM815.301 537.484L810.821 559.884L812.783 560.276L817.263 537.876L815.301 537.484ZM811.802 561.08H828.602V559.08H811.802V561.08ZM827.602 560.08V606H829.602V560.08H827.602ZM828.602 605H732.842V607H828.602V605ZM733.842 606V560.08H731.842V606H733.842ZM732.842 561.08H744.042V559.08H732.842V561.08ZM745.006 560.345L792.326 388.425L790.398 387.895L743.078 559.815L745.006 560.345ZM791.362 389.16H893.282V387.16H791.362V389.16ZM892.318 388.425L939.638 560.345L941.566 559.815L894.246 387.895L892.318 388.425ZM822.442 509H848.202V507H822.442V509ZM849.181 507.798L837.701 452.078L835.743 452.482L847.223 508.202L849.181 507.798ZM836.722 451.28H833.922V453.28H836.722V451.28ZM832.943 452.078L821.463 507.798L823.421 508.202L834.901 452.482L832.943 452.078ZM949.468 606H948.468V607H949.468V606ZM949.468 560.08V559.08H948.468V560.08H949.468ZM963.468 560.08V561.08H964.468V560.08H963.468ZM963.468 434.08H964.468V433.08H963.468V434.08ZM949.468 434.08H948.468V435.08H949.468V434.08ZM949.468 388.16V387.16H948.468V388.16H949.468ZM1067.63 388.16H1068.63V387.16H1067.63V388.16ZM1067.63 434.08V435.08H1068.63V434.08H1067.63ZM1041.87 434.08V433.08H1040.87V434.08H1041.87ZM1041.87 560.08H1040.87V561.08H1041.87V560.08ZM1067.07 560.08V561.08H1068.07V560.08H1067.07ZM1067.07 534.32V533.32H1066.07V534.32H1067.07ZM1122.79 534.32H1123.79V533.32H1122.79V534.32ZM1122.79 606V607H1123.79V606H1122.79ZM950.468 606V560.08H948.468V606H950.468ZM949.468 561.08H963.468V559.08H949.468V561.08ZM964.468 560.08V434.08H962.468V560.08H964.468ZM963.468 433.08H949.468V435.08H963.468V433.08ZM950.468 434.08V388.16H948.468V434.08H950.468ZM949.468 389.16H1067.63V387.16H949.468V389.16ZM1066.63 388.16V434.08H1068.63V388.16H1066.63ZM1067.63 433.08H1041.87V435.08H1067.63V433.08ZM1040.87 434.08V560.08H1042.87V434.08H1040.87ZM1041.87 561.08H1067.07V559.08H1041.87V561.08ZM1068.07 560.08V534.32H1066.07V560.08H1068.07ZM1067.07 535.32H1122.79V533.32H1067.07V535.32ZM1121.79 534.32V606H1123.79V534.32H1121.79ZM1122.79 605H949.468V607H1122.79V605ZM1121.2 606H1120.2V607H1121.2V606ZM1121.2 560.08V559.08H1120.2V560.08H1121.2ZM1135.2 560.08V561.08H1136.2V560.08H1135.2ZM1135.2 434.08H1136.2V433.08H1135.2V434.08ZM1121.2 434.08H1120.2V435.08H1121.2V434.08ZM1121.2 388.16V387.16H1120.2V388.16H1121.2ZM1239.36 388.16H1240.36V387.16H1239.36V388.16ZM1239.36 434.08V435.08H1240.36V434.08H1239.36ZM1213.6 434.08V433.08H1212.6V434.08H1213.6ZM1213.6 560.08H1212.6V561.08H1213.6V560.08ZM1238.8 560.08V561.08H1239.8V560.08H1238.8ZM1238.8 534.32V533.32H1237.8V534.32H1238.8ZM1294.52 534.32H1295.52V533.32H1294.52V534.32ZM1294.52 606V607H1295.52V606H1294.52ZM1122.2 606V560.08H1120.2V606H1122.2ZM1121.2 561.08H1135.2V559.08H1121.2V561.08ZM1136.2 560.08V434.08H1134.2V560.08H1136.2ZM1135.2 433.08H1121.2V435.08H1135.2V433.08ZM1122.2 434.08V388.16H1120.2V434.08H1122.2ZM1121.2 389.16H1239.36V387.16H1121.2V389.16ZM1238.36 388.16V434.08H1240.36V388.16H1238.36ZM1239.36 433.08H1213.6V435.08H1239.36V433.08ZM1212.6 434.08V560.08H1214.6V434.08H1212.6ZM1213.6 561.08H1238.8V559.08H1213.6V561.08ZM1239.8 560.08V534.32H1237.8V560.08H1239.8ZM1238.8 535.32H1294.52V533.32H1238.8V535.32ZM1293.52 534.32V606H1295.52V534.32H1293.52ZM1294.52 605H1121.2V607H1294.52V605Z" fill="url(#paint1_linear_79_1138)" mask="url(#path-3-outside-2_79_1138)"/>
<path d="M77.0727 448V402.08H91.0727V276.08H77.0727V230.16H244.513V302.68H194.953V276.08H169.473V322.56H211.753V354.48H169.473V402.08H206.153V448H77.0727ZM347.507 451.92C318.2 451.92 295.52 445.48 279.467 432.6C263.6 419.72 255.667 398.813 255.667 369.88V276.08H241.667V230.16H345.267V276.08H334.067V384.16C334.067 390.32 335.373 394.893 337.987 397.88C340.787 400.68 344.893 402.08 350.307 402.08C355.72 402.08 359.733 400.68 362.347 397.88C365.147 394.893 366.547 390.32 366.547 384.16V276.08H355.347V230.16H451.387V276.08H437.387V369.88C437.387 398.813 429.64 419.72 414.147 432.6C398.653 445.48 376.44 451.92 347.507 451.92ZM450.337 402.08H464.337V276.08H450.337V230.16H578.857C602.937 230.16 621.323 235.107 634.017 245C646.71 254.893 653.057 270.947 653.057 293.16C653.057 305.667 650.537 316.493 645.497 325.64C640.457 334.787 633.27 341.133 623.937 344.68L624.217 347.48C642.137 350.28 651.097 361.293 651.097 380.52V402.08H664.257V448H575.497V382.2C575.497 374.92 574.377 369.413 572.137 365.68C570.083 361.947 566.723 359.427 562.057 358.12C557.577 356.813 551.137 356.16 542.737 356.16V402.08H561.217V448H450.337V402.08ZM557.857 322C563.27 322 567.283 320.6 569.897 317.8C572.697 314.813 574.097 310.24 574.097 304.08V294C574.097 287.84 572.697 283.36 569.897 280.56C567.283 277.573 563.27 276.08 557.857 276.08H542.737V322H557.857ZM868.602 402.08H879.802V448H770.042V402.08H786.842L782.362 379.68H744.282L739.802 402.08H756.602V448H660.842V402.08H672.042L719.362 230.16H821.282L868.602 402.08ZM750.442 350H776.202L764.722 294.28H761.922L750.442 350ZM877.468 448V402.08H891.468V276.08H877.468V230.16H995.628V276.08H969.868V402.08H995.068V376.32H1050.79V448H877.468ZM1049.2 448V402.08H1063.2V276.08H1049.2V230.16H1167.36V276.08H1141.6V402.08H1166.8V376.32H1222.52V448H1049.2Z" fill="white"/>
<defs>
<linearGradient id="paint0_linear_79_1138" x1="29" y1="232" x2="29.5" y2="69" gradientUnits="userSpaceOnUse">
<stop stop-color="white" stop-opacity="0"/>
<stop offset="1" stop-color="white"/>
</linearGradient>
<linearGradient id="paint1_linear_79_1138" x1="143" y1="606" x2="143" y2="389.5" gradientUnits="userSpaceOnUse">
<stop stop-color="white"/>
<stop offset="1" stop-color="white" stop-opacity="0"/>
</linearGradient>
</defs>
</svg>
