<svg width="1146" height="222" viewBox="0 0 1146 222" fill="none" xmlns="http://www.w3.org/2000/svg">
<mask id="path-1-outside-1_81_1142" maskUnits="userSpaceOnUse" x="-1" y="-1" width="1148" height="224" fill="black">
<rect fill="white" x="-1" y="-1" width="1148" height="224"/>
<path d="M0.0726566 218V172.08H14.0727V46.08H0.0726566V0.159984H167.513V72.68H117.953V46.08H92.4727V92.56H134.753V124.48H92.4727V172.08H129.153V218H0.0726566ZM270.507 221.92C241.2 221.92 218.52 215.48 202.467 202.6C186.6 189.72 178.667 168.813 178.667 139.88V46.08H164.667V0.159984H268.267V46.08H257.067V154.16C257.067 160.32 258.373 164.893 260.987 167.88C263.787 170.68 267.893 172.08 273.307 172.08C278.72 172.08 282.733 170.68 285.347 167.88C288.147 164.893 289.547 160.32 289.547 154.16V46.08H278.347V0.159984H374.387V46.08H360.387V139.88C360.387 168.813 352.64 189.72 337.147 202.6C321.653 215.48 299.44 221.92 270.507 221.92ZM373.337 172.08H387.337V46.08H373.337V0.159984H501.857C525.937 0.159984 544.323 5.10665 557.017 15C569.71 24.8933 576.057 40.9467 576.057 63.16C576.057 75.6667 573.537 86.4933 568.497 95.64C563.457 104.787 556.27 111.133 546.937 114.68L547.217 117.48C565.137 120.28 574.097 131.293 574.097 150.52V172.08H587.257V218H498.497V152.2C498.497 144.92 497.377 139.413 495.137 135.68C493.083 131.947 489.723 129.427 485.057 128.12C480.577 126.813 474.137 126.16 465.737 126.16V172.08H484.217V218H373.337V172.08ZM480.857 92C486.27 92 490.283 90.6 492.897 87.8C495.697 84.8133 497.097 80.24 497.097 74.08V64C497.097 57.84 495.697 53.36 492.897 50.56C490.283 47.5733 486.27 46.08 480.857 46.08H465.737V92H480.857ZM791.602 172.08H802.802V218H693.042V172.08H709.842L705.362 149.68H667.282L662.802 172.08H679.602V218H583.842V172.08H595.042L642.362 0.159984H744.282L791.602 172.08ZM673.442 120H699.202L687.722 64.28H684.922L673.442 120ZM800.468 218V172.08H814.468V46.08H800.468V0.159984H918.628V46.08H892.868V172.08H918.068V146.32H973.788V218H800.468ZM972.198 218V172.08H986.198V46.08H972.198V0.159984H1090.36V46.08H1064.6V172.08H1089.8V146.32H1145.52V218H972.198Z"/>
</mask>
<path d="M0.0726566 218H-0.927343V219H0.0726566V218ZM0.0726566 172.08V171.08H-0.927343V172.08H0.0726566ZM14.0727 172.08V173.08H15.0727V172.08H14.0727ZM14.0727 46.08H15.0727V45.08H14.0727V46.08ZM0.0726566 46.08H-0.927343V47.08H0.0726566V46.08ZM0.0726566 0.159984V-0.840016H-0.927343V0.159984H0.0726566ZM167.513 0.159984H168.513V-0.840016H167.513V0.159984ZM167.513 72.68V73.68H168.513V72.68H167.513ZM117.953 72.68H116.953V73.68H117.953V72.68ZM117.953 46.08H118.953V45.08H117.953V46.08ZM92.4727 46.08V45.08H91.4727V46.08H92.4727ZM92.4727 92.56H91.4727V93.56H92.4727V92.56ZM134.753 92.56H135.753V91.56H134.753V92.56ZM134.753 124.48V125.48H135.753V124.48H134.753ZM92.4727 124.48V123.48H91.4727V124.48H92.4727ZM92.4727 172.08H91.4727V173.08H92.4727V172.08ZM129.153 172.08H130.153V171.08H129.153V172.08ZM129.153 218V219H130.153V218H129.153ZM1.07266 218V172.08H-0.927343V218H1.07266ZM0.0726566 173.08H14.0727V171.08H0.0726566V173.08ZM15.0727 172.08V46.08H13.0727V172.08H15.0727ZM14.0727 45.08H0.0726566V47.08H14.0727V45.08ZM1.07266 46.08V0.159984H-0.927343V46.08H1.07266ZM0.0726566 1.15998H167.513V-0.840016H0.0726566V1.15998ZM166.513 0.159984V72.68H168.513V0.159984H166.513ZM167.513 71.68H117.953V73.68H167.513V71.68ZM118.953 72.68V46.08H116.953V72.68H118.953ZM117.953 45.08H92.4727V47.08H117.953V45.08ZM91.4727 46.08V92.56H93.4727V46.08H91.4727ZM92.4727 93.56H134.753V91.56H92.4727V93.56ZM133.753 92.56V124.48H135.753V92.56H133.753ZM134.753 123.48H92.4727V125.48H134.753V123.48ZM91.4727 124.48V172.08H93.4727V124.48H91.4727ZM92.4727 173.08H129.153V171.08H92.4727V173.08ZM128.153 172.08V218H130.153V172.08H128.153ZM129.153 217H0.0726566V219H129.153V217ZM202.467 202.6L201.836 203.376L201.841 203.38L202.467 202.6ZM178.667 46.08H179.667V45.08H178.667V46.08ZM164.667 46.08H163.667V47.08H164.667V46.08ZM164.667 0.159984V-0.840016H163.667V0.159984H164.667ZM268.267 0.159984H269.267V-0.840016H268.267V0.159984ZM268.267 46.08V47.08H269.267V46.08H268.267ZM257.067 46.08V45.08H256.067V46.08H257.067ZM260.987 167.88L260.234 168.539L260.256 168.564L260.28 168.587L260.987 167.88ZM285.347 167.88L284.617 167.196L284.616 167.198L285.347 167.88ZM289.547 46.08H290.547V45.08H289.547V46.08ZM278.347 46.08H277.347V47.08H278.347V46.08ZM278.347 0.159984V-0.840016H277.347V0.159984H278.347ZM374.387 0.159984H375.387V-0.840016H374.387V0.159984ZM374.387 46.08V47.08H375.387V46.08H374.387ZM360.387 46.08V45.08H359.387V46.08H360.387ZM337.147 202.6L336.507 201.831L337.147 202.6ZM270.507 220.92C241.333 220.92 218.907 214.508 203.093 201.82L201.841 203.38C218.133 216.452 241.067 222.92 270.507 222.92V220.92ZM203.097 201.824C187.55 189.203 179.667 168.643 179.667 139.88H177.667C177.667 168.984 185.65 190.237 201.836 203.376L203.097 201.824ZM179.667 139.88V46.08H177.667V139.88H179.667ZM178.667 45.08H164.667V47.08H178.667V45.08ZM165.667 46.08V0.159984H163.667V46.08H165.667ZM164.667 1.15998H268.267V-0.840016H164.667V1.15998ZM267.267 0.159984V46.08H269.267V0.159984H267.267ZM268.267 45.08H257.067V47.08H268.267V45.08ZM256.067 46.08V154.16H258.067V46.08H256.067ZM256.067 154.16C256.067 160.434 257.394 165.292 260.234 168.539L261.739 167.221C259.353 164.495 258.067 160.206 258.067 154.16H256.067ZM260.28 168.587C263.328 171.635 267.728 173.08 273.307 173.08V171.08C268.059 171.08 264.246 169.725 261.694 167.173L260.28 168.587ZM273.307 173.08C278.88 173.08 283.208 171.637 286.078 168.562L284.616 167.198C282.259 169.723 278.56 171.08 273.307 171.08V173.08ZM286.076 168.564C289.12 165.317 290.547 160.449 290.547 154.16H288.547C288.547 160.191 287.173 164.469 284.617 167.196L286.076 168.564ZM290.547 154.16V46.08H288.547V154.16H290.547ZM289.547 45.08H278.347V47.08H289.547V45.08ZM279.347 46.08V0.159984H277.347V46.08H279.347ZM278.347 1.15998H374.387V-0.840016H278.347V1.15998ZM373.387 0.159984V46.08H375.387V0.159984H373.387ZM374.387 45.08H360.387V47.08H374.387V45.08ZM359.387 46.08V139.88H361.387V46.08H359.387ZM359.387 139.88C359.387 168.65 351.686 189.213 336.507 201.831L337.786 203.369C353.594 190.227 361.387 168.976 361.387 139.88H359.387ZM336.507 201.831C321.258 214.508 299.306 220.92 270.507 220.92V222.92C299.574 222.92 322.049 216.452 337.786 203.369L336.507 201.831ZM373.337 172.08V171.08H372.337V172.08H373.337ZM387.337 172.08V173.08H388.337V172.08H387.337ZM387.337 46.08H388.337V45.08H387.337V46.08ZM373.337 46.08H372.337V47.08H373.337V46.08ZM373.337 0.159984V-0.840016H372.337V0.159984H373.337ZM557.017 15L556.402 15.7887L556.402 15.7887L557.017 15ZM568.497 95.64L567.621 95.1574L567.621 95.1574L568.497 95.64ZM546.937 114.68L546.582 113.745L545.865 114.017L545.942 114.779L546.937 114.68ZM547.217 117.48L546.222 117.579L546.299 118.349L547.062 118.468L547.217 117.48ZM574.097 172.08H573.097V173.08H574.097V172.08ZM587.257 172.08H588.257V171.08H587.257V172.08ZM587.257 218V219H588.257V218H587.257ZM498.497 218H497.497V219H498.497V218ZM495.137 135.68L494.261 136.162L494.27 136.178L494.279 136.194L495.137 135.68ZM485.057 128.12L484.777 129.08L484.787 129.083L485.057 128.12ZM465.737 126.16V125.16H464.737V126.16H465.737ZM465.737 172.08H464.737V173.08H465.737V172.08ZM484.217 172.08H485.217V171.08H484.217V172.08ZM484.217 218V219H485.217V218H484.217ZM373.337 218H372.337V219H373.337V218ZM492.897 87.8L492.167 87.116L492.166 87.1177L492.897 87.8ZM492.897 50.56L492.144 51.2185L492.166 51.2435L492.19 51.2671L492.897 50.56ZM465.737 46.08V45.08H464.737V46.08H465.737ZM465.737 92H464.737V93H465.737V92ZM373.337 173.08H387.337V171.08H373.337V173.08ZM388.337 172.08V46.08H386.337V172.08H388.337ZM387.337 45.08H373.337V47.08H387.337V45.08ZM374.337 46.08V0.159984H372.337V46.08H374.337ZM373.337 1.15998H501.857V-0.840016H373.337V1.15998ZM501.857 1.15998C525.82 1.15998 543.953 6.08551 556.402 15.7887L557.631 14.2113C544.694 4.12779 526.054 -0.840016 501.857 -0.840016V1.15998ZM556.402 15.7887C568.768 25.4273 575.057 41.1302 575.057 63.16H577.057C577.057 40.7631 570.652 24.3594 557.631 14.2113L556.402 15.7887ZM575.057 63.16C575.057 75.5312 572.565 86.1852 567.621 95.1574L569.373 96.1226C574.509 86.8015 577.057 75.8022 577.057 63.16H575.057ZM567.621 95.1574C562.69 104.107 555.682 110.287 546.582 113.745L547.292 115.615C556.858 111.98 564.224 105.467 569.373 96.1226L567.621 95.1574ZM545.942 114.779L546.222 117.579L548.212 117.38L547.932 114.58L545.942 114.779ZM547.062 118.468C555.848 119.841 562.316 123.205 566.601 128.471C570.892 133.745 573.097 141.055 573.097 150.52H575.097C575.097 140.758 572.822 132.948 568.152 127.209C563.477 121.462 556.505 117.919 547.371 116.492L547.062 118.468ZM573.097 150.52V172.08H575.097V150.52H573.097ZM574.097 173.08H587.257V171.08H574.097V173.08ZM586.257 172.08V218H588.257V172.08H586.257ZM587.257 217H498.497V219H587.257V217ZM499.497 218V152.2H497.497V218H499.497ZM499.497 152.2C499.497 144.847 498.371 139.126 495.994 135.166L494.279 136.194C496.383 139.7 497.497 144.993 497.497 152.2H499.497ZM496.013 135.198C493.812 131.196 490.213 128.525 485.326 127.157L484.787 129.083C489.234 130.328 492.355 132.697 494.261 136.162L496.013 135.198ZM485.337 127.16C480.721 125.814 474.169 125.16 465.737 125.16V127.16C474.105 127.16 480.433 127.813 484.777 129.08L485.337 127.16ZM464.737 126.16V172.08H466.737V126.16H464.737ZM465.737 173.08H484.217V171.08H465.737V173.08ZM483.217 172.08V218H485.217V172.08H483.217ZM484.217 217H373.337V219H484.217V217ZM374.337 218V172.08H372.337V218H374.337ZM480.857 93C486.43 93 490.758 91.5571 493.628 88.4823L492.166 87.1177C489.809 89.6429 486.11 91 480.857 91V93ZM493.626 88.4839C496.67 85.2372 498.097 80.3687 498.097 74.08H496.097C496.097 80.1113 494.723 84.3895 492.167 87.116L493.626 88.4839ZM498.097 74.08V64H496.097V74.08H498.097ZM498.097 64C498.097 57.7183 496.673 52.922 493.604 49.8529L492.19 51.2671C494.72 53.798 496.097 57.9617 496.097 64H498.097ZM493.649 49.9015C490.784 46.6269 486.449 45.08 480.857 45.08V47.08C486.092 47.08 489.783 48.5197 492.144 51.2185L493.649 49.9015ZM480.857 45.08H465.737V47.08H480.857V45.08ZM464.737 46.08V92H466.737V46.08H464.737ZM465.737 93H480.857V91H465.737V93ZM791.602 172.08L790.638 172.345L790.84 173.08H791.602V172.08ZM802.802 172.08H803.802V171.08H802.802V172.08ZM802.802 218V219H803.802V218H802.802ZM693.042 218H692.042V219H693.042V218ZM693.042 172.08V171.08H692.042V172.08H693.042ZM709.842 172.08V173.08H711.062L710.823 171.884L709.842 172.08ZM705.362 149.68L706.343 149.484L706.182 148.68H705.362V149.68ZM667.282 149.68V148.68H666.462L666.301 149.484L667.282 149.68ZM662.802 172.08L661.821 171.884L661.582 173.08H662.802V172.08ZM679.602 172.08H680.602V171.08H679.602V172.08ZM679.602 218V219H680.602V218H679.602ZM583.842 218H582.842V219H583.842V218ZM583.842 172.08V171.08H582.842V172.08H583.842ZM595.042 172.08V173.08H595.804L596.006 172.345L595.042 172.08ZM642.362 0.159984V-0.840016H641.6L641.398 -0.105391L642.362 0.159984ZM744.282 0.159984L745.246 -0.105391L745.044 -0.840016H744.282V0.159984ZM673.442 120L672.463 119.798L672.215 121H673.442V120ZM699.202 120V121H700.429L700.181 119.798L699.202 120ZM687.722 64.28L688.701 64.0782L688.537 63.28H687.722V64.28ZM684.922 64.28V63.28H684.107L683.943 64.0782L684.922 64.28ZM791.602 173.08H802.802V171.08H791.602V173.08ZM801.802 172.08V218H803.802V172.08H801.802ZM802.802 217H693.042V219H802.802V217ZM694.042 218V172.08H692.042V218H694.042ZM693.042 173.08H709.842V171.08H693.042V173.08ZM710.823 171.884L706.343 149.484L704.381 149.876L708.861 172.276L710.823 171.884ZM705.362 148.68H667.282V150.68H705.362V148.68ZM666.301 149.484L661.821 171.884L663.783 172.276L668.263 149.876L666.301 149.484ZM662.802 173.08H679.602V171.08H662.802V173.08ZM678.602 172.08V218H680.602V172.08H678.602ZM679.602 217H583.842V219H679.602V217ZM584.842 218V172.08H582.842V218H584.842ZM583.842 173.08H595.042V171.08H583.842V173.08ZM596.006 172.345L643.326 0.42536L641.398 -0.105391L594.078 171.815L596.006 172.345ZM642.362 1.15998H744.282V-0.840016H642.362V1.15998ZM743.318 0.42536L790.638 172.345L792.566 171.815L745.246 -0.105391L743.318 0.42536ZM673.442 121H699.202V119H673.442V121ZM700.181 119.798L688.701 64.0782L686.743 64.4818L698.223 120.202L700.181 119.798ZM687.722 63.28H684.922V65.28H687.722V63.28ZM683.943 64.0782L672.463 119.798L674.421 120.202L685.901 64.4818L683.943 64.0782ZM800.468 218H799.468V219H800.468V218ZM800.468 172.08V171.08H799.468V172.08H800.468ZM814.468 172.08V173.08H815.468V172.08H814.468ZM814.468 46.08H815.468V45.08H814.468V46.08ZM800.468 46.08H799.468V47.08H800.468V46.08ZM800.468 0.159984V-0.840016H799.468V0.159984H800.468ZM918.628 0.159984H919.628V-0.840016H918.628V0.159984ZM918.628 46.08V47.08H919.628V46.08H918.628ZM892.868 46.08V45.08H891.868V46.08H892.868ZM892.868 172.08H891.868V173.08H892.868V172.08ZM918.068 172.08V173.08H919.068V172.08H918.068ZM918.068 146.32V145.32H917.068V146.32H918.068ZM973.788 146.32H974.788V145.32H973.788V146.32ZM973.788 218V219H974.788V218H973.788ZM801.468 218V172.08H799.468V218H801.468ZM800.468 173.08H814.468V171.08H800.468V173.08ZM815.468 172.08V46.08H813.468V172.08H815.468ZM814.468 45.08H800.468V47.08H814.468V45.08ZM801.468 46.08V0.159984H799.468V46.08H801.468ZM800.468 1.15998H918.628V-0.840016H800.468V1.15998ZM917.628 0.159984V46.08H919.628V0.159984H917.628ZM918.628 45.08H892.868V47.08H918.628V45.08ZM891.868 46.08V172.08H893.868V46.08H891.868ZM892.868 173.08H918.068V171.08H892.868V173.08ZM919.068 172.08V146.32H917.068V172.08H919.068ZM918.068 147.32H973.788V145.32H918.068V147.32ZM972.788 146.32V218H974.788V146.32H972.788ZM973.788 217H800.468V219H973.788V217ZM972.198 218H971.198V219H972.198V218ZM972.198 172.08V171.08H971.198V172.08H972.198ZM986.198 172.08V173.08H987.198V172.08H986.198ZM986.198 46.08H987.198V45.08H986.198V46.08ZM972.198 46.08H971.198V47.08H972.198V46.08ZM972.198 0.159984V-0.840016H971.198V0.159984H972.198ZM1090.36 0.159984H1091.36V-0.840016H1090.36V0.159984ZM1090.36 46.08V47.08H1091.36V46.08H1090.36ZM1064.6 46.08V45.08H1063.6V46.08H1064.6ZM1064.6 172.08H1063.6V173.08H1064.6V172.08ZM1089.8 172.08V173.08H1090.8V172.08H1089.8ZM1089.8 146.32V145.32H1088.8V146.32H1089.8ZM1145.52 146.32H1146.52V145.32H1145.52V146.32ZM1145.52 218V219H1146.52V218H1145.52ZM973.198 218V172.08H971.198V218H973.198ZM972.198 173.08H986.198V171.08H972.198V173.08ZM987.198 172.08V46.08H985.198V172.08H987.198ZM986.198 45.08H972.198V47.08H986.198V45.08ZM973.198 46.08V0.159984H971.198V46.08H973.198ZM972.198 1.15998H1090.36V-0.840016H972.198V1.15998ZM1089.36 0.159984V46.08H1091.36V0.159984H1089.36ZM1090.36 45.08H1064.6V47.08H1090.36V45.08ZM1063.6 46.08V172.08H1065.6V46.08H1063.6ZM1064.6 173.08H1089.8V171.08H1064.6V173.08ZM1090.8 172.08V146.32H1088.8V172.08H1090.8ZM1089.8 147.32H1145.52V145.32H1089.8V147.32ZM1144.52 146.32V218H1146.52V146.32H1144.52ZM1145.52 217H972.198V219H1145.52V217Z" fill="url(#paint0_linear_81_1142)" mask="url(#path-1-outside-1_81_1142)"/>
<defs>
<linearGradient id="paint0_linear_81_1142" x1="23" y1="160" x2="23.5" y2="-2.99999" gradientUnits="userSpaceOnUse">
<stop stop-color="white"/>
<stop offset="1" stop-color="white" stop-opacity="0"/>
</linearGradient>
</defs>
</svg>
